<?xml version="1.0" encoding="utf-8"?>
<!-- Generator: Adobe Illustrator 25.0.1, SVG Export Plug-In . SVG Version: 6.00 Build 0)  -->
<svg version="1.1" id="Layer_1" xmlns="http://www.w3.org/2000/svg" xmlns:xlink="http://www.w3.org/1999/xlink" x="0px" y="0px"
	 viewBox="0 0 495.44 721.36" style="enable-background:new 0 0 495.44 721.36;" xml:space="preserve">
<style type="text/css">
	.st0{fill:#FFCD08;}
	.st1{fill:#050507;}
</style>
<g>
	<g>
		<g>
			<path class="st0" d="M239.46,605.56c0,0,0,37.25,0,51.04c0,11.42-23.31,15.27-61.06,17.82c-1.76,0.12-1.77,2.71,0,2.82
				c18.03,1.06,40.13,2.62,46.37,4.18c11.03,2.76,2.76,13.79-2.76,22.06c-5.52,8.27-11.03,22.06,8.27,11.03s19.3-11.03,27.58-8.27
				c8.27,2.76,19.3,8.27,11.03-5.52c-8.27-13.79-13.79-22.06-13.79-44.12c0-22.06,0-48.52,0-48.52"/>
		</g>
		<g>
			<path d="M219.66,721.36c-1.65,0-3.09-0.48-4.19-1.65c-3.86-4.14,0.99-12.91,4.23-17.77l1.05-1.57c3.05-4.52,7.65-11.36,6.52-14.3
				c-0.34-0.87-1.41-1.54-3.19-1.98c-4.74-1.18-21.03-2.64-45.86-4.1c-2.23-0.13-3.91-1.91-3.92-4.14c-0.01-2.24,1.67-4.03,3.9-4.18
				c28.92-1.96,58.49-5.28,58.49-15.07v-51.04h5.52v51.04c0,11.47-15.72,16.21-45.13,19.08c15.01,1.08,24.52,2.1,28.34,3.06
				c3.62,0.91,5.98,2.71,7,5.36c2.16,5.63-2.75,12.92-7.09,19.36l-1.04,1.55c-3.43,5.14-4.91,9.46-4.75,10.85
				c0.69,0.06,3.08-0.15,9.36-3.74c19.61-11.21,20.37-11.64,29.82-8.49c1.05,0.35,2.15,0.75,3.25,1.14
				c2.03,0.73,5.16,1.86,6.89,2.12c-0.26-0.83-0.88-2.3-2.35-4.74l-0.95-1.59c-7.68-12.77-13.23-21.99-13.23-43.95v-48.52h5.52
				v48.52c0,20.44,4.68,28.22,12.44,41.11l0.96,1.59c2.58,4.29,4.64,8.66,2.32,11.48c-2.55,3.1-7.6,1.28-13.46-0.83
				c-1.06-0.38-2.11-0.76-3.13-1.1c-7.11-2.37-7.11-2.37-25.34,8.05C227.74,719.13,223.23,721.36,219.66,721.36z"/>
		</g>
	</g>
	<g>
		<g>
			<path class="st0" d="M330.45,606.49c0,0-5.04,26.66-10.56,48.72c-5.52,22.06,12.96,50.62,19.3,55.15
				c9.65,6.89,5.52-8.27,22.06-11.03c12.56-2.09,31.48,2.17,39.86,4.35c0.91,0.24,1.51-0.92,0.77-1.52
				c-5.28-4.29-14.3-12.62-10.31-16.62c3.6-3.6,13.05-7.19,19.2-9.26c1.36-0.46,1.2-2.42-0.22-2.63
				c-15.05-2.26-54.76-8.49-65.86-12.93c-13.79-5.52-8.27-16.55-5.52-33.09c2.76-16.55,4.55-23.26,4.55-23.26"/>
		</g>
		<g>
			<path d="M343.32,714.9c-2.23,0-4.3-1.27-5.73-2.29c-7.14-5.1-26.23-34.65-20.38-58.07c5.43-21.73,10.47-48.3,10.52-48.56
				l5.42,1.02c-0.05,0.27-5.12,26.99-10.59,48.88c-5.19,20.78,12.74,48.31,18.23,52.24c1.9,1.36,2.54,1.26,2.54,1.26
				c0.38-0.07,1.39-1.54,1.99-2.42c2.39-3.49,6-8.77,15.47-10.35c10.03-1.68,23.59,0.43,33.7,2.65c-4.27-4.27-6.5-7.93-6.65-10.95
				c-0.09-1.82,0.53-3.46,1.79-4.72c2.54-2.54,7.58-5.25,15.01-8.05c-18.25-2.81-50.83-8.2-60.96-12.26
				c-13.49-5.4-11.31-15.85-8.79-27.94c0.53-2.55,1.1-5.27,1.58-8.16c2.75-16.49,4.53-23.24,4.61-23.52l5.33,1.42
				c-0.02,0.07-1.8,6.84-4.5,23c-0.49,2.97-1.08,5.76-1.62,8.38c-2.67,12.82-3.4,18.16,5.44,21.69
				c11.03,4.41,52.73,10.88,65.24,12.76c1.89,0.28,3.32,1.81,3.48,3.7c0.17,1.9-0.98,3.66-2.8,4.27c-9.13,3.07-15.74,6.2-18.13,8.59
				c-0.12,0.12-0.2,0.22-0.18,0.54c0.09,1.75,2.84,5.94,10.28,11.99c1.34,1.09,1.73,2.92,0.95,4.45c-0.78,1.54-2.49,2.3-4.16,1.87
				c-7.58-1.96-26.54-6.32-38.72-4.29c-7.16,1.19-9.64,4.82-11.83,8.02c-1.44,2.1-2.92,4.27-5.58,4.74
				C343.97,714.88,343.65,714.9,343.32,714.9z"/>
		</g>
	</g>
	<g>
		<g>
			<path class="st0" d="M308.42,72.14c0,0-13.34-18.08-35.41-29.11c0,0-5.52-2.76-2.76-8.27c0,0,6.89-6.89,23.44,6.89
				c0,0-22.06-22.06-16.55-27.58c5.52-5.52,19.3,8.27,27.58,24.82c0,0-13.79-33.09-8.27-35.85S313,16.83,321.27,33.37
				c0,0,2.76-19.3,11.03-19.3s0,24.82-2.76,35.85c-2.76,11.03-1.28,19.41-1.28,19.41"/>
		</g>
		<g>
			<path d="M306.2,73.78c-0.13-0.18-13.25-17.7-34.42-28.28c-3.21-1.61-6.92-6.12-3.99-11.97l0.2-0.4l0.32-0.32
				c0.59-0.59,4.44-4.03,12.23-1.9c-5.37-7.13-9.3-14.82-5.33-18.79c1.67-1.67,3.89-2.33,6.42-1.93c4.05,0.66,8.65,4.09,13.02,8.88
				c-2.99-10.61-2.8-16.81,0.58-18.5c7.51-3.75,17.83,11.66,24.98,24.78c1.86-6.35,5.48-14.04,12.1-14.04
				c1.87,0,3.51,0.79,4.61,2.23c3.69,4.84,0.89,16.51-3.15,31.28c-0.59,2.14-1.13,4.11-1.54,5.76c-2.57,10.26-1.26,18.19-1.24,18.27
				l-5.43,0.95c-0.06-0.37-1.54-9.09,1.32-20.56c0.42-1.69,0.97-3.69,1.57-5.88c1.66-6.05,6.7-24.46,4.04-26.53c0,0-0.01,0-0.01,0
				c-4.18,0-7.49,10.1-8.47,16.92l-1.25,8.72l-3.94-7.88c-4.42-8.84-9.1-16.64-13.17-21.96c-4.58-5.99-6.93-6.97-7.68-7.11
				c-0.85,3.42,3.27,17.79,9.32,32.3l-5.01,2.29c-6.83-13.67-16.65-23.69-21.52-24.48c-1.08-0.17-1.45,0.2-1.64,0.38
				c-1.43,1.43,4.88,12.01,16.55,23.68l-3.71,4.07c-12.14-10.11-18.03-8.01-19.45-7.22c-0.81,2.24,0.74,3.48,1.79,4.03
				c22.37,11.19,35.8,29.17,36.36,29.93L306.2,73.78z"/>
		</g>
	</g>
	<g>
		<g>
			<path class="st0" d="M8.28,481.48c38.61,5.52,143.99,21.27,140.93-74.85c-3.05-96.12-40.28-285.02,165.16-336.03
				c49.64-8.27,106.17,23.44,128.23,86.86c22.06,63.43,46.88,126.85,49.64,204.06c2.76,77.21-2.76,226.12-165.46,245.43
				c-88.24,16.55-226.12-33.09-318.5-109.32C-4.13,482.86,8.28,481.48,8.28,481.48z"/>
		</g>
		<g>
			<path d="M290.02,612.9c-85.72,0-200.46-44.63-283.49-113.14l-0.36-0.35c-5.38-6.41-7.22-11.47-5.61-15.48
				c1.44-3.61,5.34-4.96,7.42-5.19l0.35-0.04l1.19,0.17c27.9,3.99,85.95,12.29,116.84-15.38c14.14-12.66,20.9-31.76,20.11-56.78
				c-0.33-10.32-1.06-21.81-1.83-33.97c-3.26-51.36-7.32-115.27,12.5-172.95c23.51-68.42,74.73-111.56,156.58-131.88
				c47.39-7.9,107.63,20.03,131.5,88.64c2.05,5.89,4.12,11.78,6.2,17.69c20.19,57.39,41.07,116.73,43.59,187.18
				c1.38,38.63,0.71,95.76-20.91,145.63c-25.84,59.6-75.29,94.13-146.98,102.64C315.57,611.86,303.13,612.9,290.02,612.9z
				 M10.24,495.67c94.59,77.96,230.4,124.62,316.04,108.57c171.14-20.31,165.17-187.63,163.21-242.62
				c-2.49-69.62-23.22-128.55-43.28-185.55c-2.08-5.91-4.16-11.81-6.21-17.71c-22.86-65.72-80.28-92.54-125.17-85.05
				C134,118.24,143.71,271.19,150.14,372.4c0.78,12.2,1.51,23.73,1.84,34.14c0.85,26.72-6.53,47.26-21.94,61.06
				c-32.81,29.38-92.58,20.83-121.3,16.72l-0.42-0.06c-0.78,0.17-2.24,0.68-2.64,1.72C5.41,486.67,4.97,489.34,10.24,495.67z"/>
		</g>
	</g>
	<g>
		<path class="st1" d="M393.49,312.01c-7.53,0-16.05-0.45-25.49-1.5c-19.58-2.8-33.34-16.37-33.91-16.94l-1.79-1.79l2.48-0.53
			c1.58-0.34,38.81-8.3,44.41-8.3c3.97,0,20.66,5.96,38.87,12.6c4.94,1.8,9.03,3.29,11.2,4.02c3.04,1.01,2.86,2.99,2.73,3.57
			C431.03,307.52,417.23,312.01,393.49,312.01z M337.99,293.37c4.41,3.74,15.85,12.32,30.36,14.4c40.68,4.52,60.18-2.35,60.94-5.2
			c-0.09,0.03-0.27-0.19-0.9-0.4c-2.19-0.73-6.3-2.23-11.28-4.04c-12.76-4.65-34.11-12.43-37.93-12.43
			C375.2,285.69,351.86,290.43,337.99,293.37z"/>
	</g>
	<g>
		<path class="st1" d="M382.13,355.83c-1.11,0-2.14-0.53-2.8-1.46c-7.65-10.9-33.27-47.31-41.94-57.92l2.14-1.74
			c8.72,10.69,34.4,47.16,42.06,58.08c0.22,0.31,0.51,0.3,0.66,0.28c0.14-0.02,0.47-0.12,0.58-0.53c5.97-20.64,3.17-41.59,3.14-41.8
			l2.73-0.38c0.12,0.88,2.92,21.72-3.22,42.94c-0.38,1.31-1.44,2.26-2.78,2.48C382.52,355.81,382.33,355.83,382.13,355.83z"/>
	</g>
	<g>
		<circle class="st1" cx="392.97" cy="218.13" r="16.55"/>
	</g>
	<g>
		<circle class="st1" cx="292.32" cy="247.09" r="16.55"/>
	</g>
</g>
</svg>
